<?xml version="1.0" encoding="iso-8859-1"?>
<!-- Uploaded to: SVG Repo, www.svgrepo.com, Generator: SVG Repo Mixer Tools -->
<svg fill="#000000" height="800px" width="800px" version="1.1" id="Layer_1" xmlns="http://www.w3.org/2000/svg" xmlns:xlink="http://www.w3.org/1999/xlink" 
	 viewBox="0 0 512.001 512.001" xml:space="preserve">
<g>
	<g>
		<path d="M488.803,105.893c-10.758-18.827-21.36-34.373-21.807-35.026l-8.173-11.955l-12.532,7.256
			c-3.191,1.847-78.849,46.512-138.976,156.345c-64.018,116.941-102.45,124.387-125.811,119.805
			c-30.118-5.906-41.467-14.913-43.14-16.366l-7.051-9.332l-112.741,58.13l-0.814,0.56C15.942,376.561,0,388.064,0,406.695
			c0,8.008,0.88,19.331,8.487,25.172l3.65,2.802l215.401,17.551c1.919,0.288,6.568,0.869,12.893,0.868
			c5.436,0,12.112-0.428,19.353-1.84c24.466-4.765,43.348-18.334,54.604-39.238l3.11-5.79
			c11.163-20.808,28.031-52.254,46.812-79.223c26.011-37.35,43.381-48.594,53.375-51.449c12.661-3.618,22.749-6.442,30.705-8.636
			c-3.44,24.314-7.792,62.493-6.024,90.311v64.565h-4.728v31.213h41.358v-31.213h-5.417v-65.07l-0.034-1.038
			c-2.024-30.352,4.556-77.293,7.69-97.275l0.227-0.053l3.211-6.812c2.798-5.934,27.329-58.749,27.329-85.736
			C512,157.511,509.595,142.281,488.803,105.893z"/>
	</g>
</g>
</svg>