<?xml version="1.0" encoding="utf-8"?>

<!DOCTYPE svg PUBLIC "-//W3C//DTD SVG 1.1//EN" "http://www.w3.org/Graphics/SVG/1.1/DTD/svg11.dtd">
<!-- Uploaded to: SVG Repo, www.svgrepo.com, Generator: SVG Repo Mixer Tools -->
<svg height="800px" width="800px" version="1.1" id="_x32_" xmlns="http://www.w3.org/2000/svg" xmlns:xlink="http://www.w3.org/1999/xlink" 
	 viewBox="0 0 512 512"  xml:space="preserve">
<style type="text/css">
	.st0{fill:#000000;}
</style>
<g>
	<path class="st0" d="M511.592,180.871l-14.133-50.353c-0.839-2.986-2.917-5.49-5.693-6.868c-2.769-1.377-6.007-1.524-8.889-0.398
		l-0.02,0.006l-0.147,0.057c-3.776,1.412-71.347,25.882-226.713,25.889c-80.816,0-137.882-6.63-174.563-13.182
		c-18.344-3.28-31.589-6.539-40.163-8.945c-4.287-1.202-7.399-2.188-9.406-2.86c-1-0.335-1.727-0.594-2.175-0.755l-0.476-0.175
		l-0.069-0.029l-0.022-0.006c-2.881-1.126-6.119-0.979-8.888,0.398c-2.776,1.378-4.853,3.882-5.693,6.868L0.408,180.871
		c-1.203,4.28,0.307,8.896,3.811,11.637l0.336,0.258c3.496,2.748,34.429,27.183,72.913,61.64
		c38.478,34.436,84.536,78.991,118.07,121.483c0.574,0.728,1.342,1.475,2.084,2.021c1.077,0.804,5.497,3.749,14.707,6.434
		c9.217,2.692,23.226,5.154,43.667,5.154c22.085-0.007,36.093-2.427,45.114-5.204c8.987-2.762,13.064-5.979,14.546-7.504
		c0.322-0.328,0.511-0.538,0.798-0.902c34.617-43.863,82.578-89.922,121.776-124.784c19.602-17.448,37.023-32.121,49.52-42.422
		c6.252-5.154,11.273-9.211,14.728-11.966c1.721-1.385,3.056-2.448,3.952-3.154c0.455-0.35,0.79-0.622,1.014-0.797l0.336-0.258
		C511.284,189.767,512.795,185.151,511.592,180.871z M423.608,234.678c-39.374,35.058-87.467,81.11-123.427,126.371
		c-1.007,0.574-3.636,1.86-8.818,3.133c-6.819,1.693-18.016,3.329-35.366,3.329c-18.679,0-30.589-2.252-37.498-4.266
		c-3.462-1.021-5.679-1.972-6.896-2.56c-0.056-0.034-0.084-0.056-0.14-0.076c-35.925-45.122-83.83-90.992-123.077-125.931
		c-29.526-26.281-54.108-46.31-64.829-54.898l9.07-32.31c25.778,7.518,96.09,23.722,223.37,23.722
		c127.287,0,197.599-16.204,223.377-23.722l9.07,32.31C477.723,188.367,453.141,208.397,423.608,234.678z"/>
	<path class="st0" d="M293.097,196.403c-3-1.965-6.777-2.286-10.064-0.867l-27.037,11.7l-27.036-11.7
		c-3.28-1.419-7.063-1.098-10.057,0.867c-3,1.965-4.797,5.308-4.797,8.889v25.148c0,3.581,1.798,6.924,4.797,8.882
		c2.994,1.972,6.777,2.294,10.057,0.881l27.036-11.706l27.037,11.706c3.287,1.413,7.063,1.092,10.064-0.881
		c2.993-1.958,4.797-5.301,4.797-8.882v-25.148C297.894,201.711,296.09,198.368,293.097,196.403z"/>
</g>
</svg>