<?xml version="1.0" encoding="iso-8859-1"?>
<!-- Uploaded to: SVG Repo, www.svgrepo.com, Generator: SVG Repo Mixer Tools -->
<svg fill="#000000" height="800px" width="800px" version="1.1" id="Layer_1" xmlns="http://www.w3.org/2000/svg" xmlns:xlink="http://www.w3.org/1999/xlink" 
	 viewBox="0 0 512.001 512.001" xml:space="preserve">
<g>
	<g>
		<g>
			<path d="M256,0c-96.567,0-175.13,78.563-175.13,175.13c0,46.239,17.857,89.855,50.281,122.815l2.601,2.633
				c19.495,20.419,32.278,45.744,37.084,73.493v49.916c0,23.948,17.548,43.867,40.459,47.594c2.27,22.665,21.453,40.42,44.705,40.42
				c23.252,0,42.435-17.755,44.705-40.42c22.911-3.727,40.459-23.646,40.459-47.594V374.07
				c4.778-27.595,17.447-52.794,36.759-73.153l2.925-2.974c32.424-32.959,50.281-76.574,50.281-122.815
				C431.13,78.563,352.568,0,256,0z M256,496.792c-14.635,0-26.833-10.632-29.278-24.577h58.556
				C282.834,486.16,270.636,496.792,256,496.792z M325.955,396.181h-33.456v15.208h33.456v12.597
				c0.001,18.068-14.588,32.785-32.604,33.009l-0.081,0.001c-0.125,0.001-0.248,0.005-0.401,0.01h-73.737
				c-0.134-0.005-0.268-0.009-0.401-0.01l-0.081-0.001c-11.475-0.142-21.553-6.165-27.363-15.19h50.519v-15.208h-55.649
				c-0.068-0.863-0.113-1.732-0.113-2.611V411.39h86.178v-15.208h-86.178v-15.208h139.912V396.181z M370.865,286.4l-0.816,0.813
				c-21.782,21.705-36.49,48.751-42.783,78.552H184.735c-6.293-29.8-21.001-56.845-42.783-78.552l-0.727-0.721
				c-29.123-30.003-45.146-69.505-45.146-111.363c0-88.18,71.74-159.922,159.922-159.922S415.922,86.949,415.922,175.13
				C415.922,216.945,399.93,256.41,370.865,286.4z"/>
			<path d="M256,45.625V30.416c-48.3,0-93.259,24.037-120.264,64.298l12.63,8.471C172.543,67.143,212.78,45.625,256,45.625z"/>
			<path d="M111.287,175.13h15.208c0-19.329,4.174-37.932,12.407-55.293l-13.742-6.517
				C115.955,132.733,111.287,153.53,111.287,175.13z"/>
			<path d="M312.567,139.73c-20.402,0-37.001,16.598-37.001,37v21.792h-39.132V176.73c0-20.401-16.598-37-37.001-37
				s-37.001,16.598-37.001,37c0,20.402,16.598,37.001,37.001,37.001h21.792v129.221h15.208v-129.22h39.132v129.221h15.208V213.731
				h21.792c20.402,0,37.001-16.598,37.001-37.001C349.566,156.328,332.968,139.73,312.567,139.73z M221.226,198.523h-21.792
				c-12.017,0-21.792-9.777-21.792-21.792s9.776-21.791,21.792-21.791s21.792,9.776,21.792,21.791V198.523z M312.567,198.523
				h-21.792v-21.792c0-12.017,9.776-21.791,21.792-21.791c12.017,0,21.792,9.776,21.792,21.791S324.582,198.523,312.567,198.523z"/>
		</g>
	</g>
</g>
</svg>